<svg xmlns="http://www.w3.org/2000/svg" viewBox="0 0 256 256" width="256" height="256">
  <!-- Background -->
  <rect width="256" height="256" rx="48" fill="#1a2260"/>
  
  <!-- Departure board frame -->
  <rect x="28" y="40" width="200" height="176" rx="16" fill="#0d1440" stroke="#3a4a8a" stroke-width="2"/>
  
  <!-- Header bar -->
  <rect x="28" y="40" width="200" height="36" rx="16" fill="#005eb8"/>
  <rect x="28" y="60" width="200" height="16" fill="#005eb8"/>
  
  <!-- Bus icon in header -->
  <path d="M52 50h12a4 4 0 014 4v16a4 4 0 01-4 4H52a4 4 0 01-4-4V54a4 4 0 014-4z" fill="none" stroke="#fff" stroke-width="1.5"/>
  <circle cx="54" cy="72" r="2" fill="#fff"/>
  <circle cx="62" cy="72" r="2" fill="#fff"/>
  <rect x="50" y="52" width="16" height="8" rx="2" fill="none" stroke="#fff" stroke-width="1"/>
  
  <!-- Header text -->
  <text x="80" y="65" font-family="Arial, sans-serif" font-size="16" font-weight="bold" fill="#fff">MZKZG</text>
  
  <!-- Departure rows -->
  <!-- Row 1 -->
  <rect x="40" y="88" width="32" height="20" rx="5" fill="#DA2128"/>
  <text x="56" y="103" font-family="Arial, sans-serif" font-size="12" font-weight="bold" fill="#fff" text-anchor="middle">154</text>
  <text x="82" y="103" font-family="Arial, sans-serif" font-size="11" fill="#e0e0e0">Orunia Górna</text>
  <text x="212" y="103" font-family="Arial, sans-serif" font-size="11" font-weight="bold" fill="#4caf50" text-anchor="end">2 min</text>
  
  <!-- Row 2 -->
  <rect x="40" y="116" width="32" height="20" rx="5" fill="#DA2128"/>
  <text x="56" y="131" font-family="Arial, sans-serif" font-size="12" font-weight="bold" fill="#fff" text-anchor="middle">289</text>
  <text x="82" y="131" font-family="Arial, sans-serif" font-size="11" fill="#e0e0e0">Starogardzka</text>
  <text x="212" y="131" font-family="Arial, sans-serif" font-size="11" font-weight="bold" fill="#4caf50" text-anchor="end">5 min</text>
  
  <!-- Row 3 -->
  <rect x="40" y="144" width="32" height="20" rx="5" fill="#005eb8"/>
  <text x="56" y="159" font-family="Arial, sans-serif" font-size="12" font-weight="bold" fill="#fff" text-anchor="middle">S1</text>
  <text x="82" y="159" font-family="Arial, sans-serif" font-size="11" fill="#e0e0e0">Gdynia Gł.</text>
  <text x="212" y="159" font-family="Arial, sans-serif" font-size="11" font-weight="bold" fill="#4caf50" text-anchor="end">8 min</text>
  
  <!-- Row 4 -->
  <rect x="40" y="172" width="32" height="20" rx="5" fill="#ea580c"/>
  <text x="56" y="187" font-family="Arial, sans-serif" font-size="12" font-weight="bold" fill="#fff" text-anchor="middle">27</text>
  <text x="82" y="187" font-family="Arial, sans-serif" font-size="11" fill="#e0e0e0">Cisowa SKM</text>
  <text x="212" y="187" font-family="Arial, sans-serif" font-size="11" font-weight="bold" fill="#4caf50" text-anchor="end">11 min</text>
  
  <!-- Realtime dot -->
  <circle cx="36" y="98" r="3" fill="#4caf50"/>
  <circle cx="36" cy="98" r="3" fill="#4caf50"/>
  <circle cx="36" cy="126" r="3" fill="#4caf50"/>
  <circle cx="36" cy="154" r="3" fill="#4caf50"/>
  <circle cx="36" cy="182" r="3" fill="#4caf50"/>
  
  <!-- Bottom accent -->
  <rect x="28" y="224" width="66" height="4" rx="2" fill="#DA2128"/>
  <rect x="98" y="224" width="66" height="4" rx="2" fill="#005eb8"/>
  <rect x="168" y="224" width="60" height="4" rx="2" fill="#ea580c"/>
</svg>
